<svg width="26" height="22" viewBox="0 0 26 22" fill="none" xmlns="http://www.w3.org/2000/svg">
<path d="M11.3491 21.3549L9.23958 19.4288C7.07912 17.4518 5.12778 15.4899 3.38556 13.543C1.64252 11.597 0.770996 9.45199 0.770996 7.10809C0.770996 5.19222 1.41302 3.59225 2.69706 2.30821C3.98111 1.02416 5.58107 0.382141 7.49695 0.382141C8.57718 0.382141 9.59626 0.611231 10.5542 1.06941C11.5121 1.52841 12.3274 2.15535 13 2.95023C13.6726 2.15535 14.4879 1.52841 15.4458 1.06941C16.4037 0.611231 17.4228 0.382141 18.5031 0.382141C20.4189 0.382141 22.0189 1.02416 23.3029 2.30821C24.587 3.59225 25.229 5.19222 25.229 7.10809C25.229 9.45199 24.3628 11.6023 22.6303 13.5589C20.8979 15.5155 18.9311 17.4824 16.7298 19.4594L14.6509 21.3549C14.1821 21.7829 13.6318 21.9969 13 21.9969C12.3682 21.9969 11.8179 21.7829 11.3491 21.3549Z" fill="#FFC2C2" style="mix-blend-mode:multiply"/>
</svg>
